<svg width="76" height="7" viewBox="0 0 76 7" fill="none" xmlns="http://www.w3.org/2000/svg">
<path d="M5.16797 5.01697H2.17578L1.67188 6.03259H0.0546875L2.86328 0.665405H4.48047L7.28906 6.03259H5.67188L5.16797 5.01697ZM2.69531 3.97009H4.65625L3.67969 1.99353L2.69531 3.97009ZM11.5352 6.03259H9.84766L7.13281 0.665405H8.75L10.7031 4.70447L12.6523 0.665405H14.2695L11.5352 6.03259ZM19.2305 5.01697H16.2383L15.7344 6.03259H14.1172L16.9258 0.665405H18.543L21.3516 6.03259H19.7344L19.2305 5.01697ZM16.7578 3.97009H18.7188L17.7422 1.99353L16.7578 3.97009ZM28.8047 3.34509C28.8047 3.68884 28.7669 3.99483 28.6914 4.26306C28.6159 4.52869 28.5091 4.76046 28.3711 4.95837C28.2357 5.15629 28.0716 5.32426 27.8789 5.46228C27.6888 5.6003 27.4766 5.71098 27.2422 5.79431C27.0078 5.87764 26.7552 5.93884 26.4844 5.97791C26.2135 6.01436 25.931 6.03259 25.6367 6.03259H22.2305V0.665405H25.6289C25.9232 0.665405 26.2057 0.684937 26.4766 0.723999C26.7474 0.760457 27 0.820353 27.2344 0.903687C27.4714 0.98702 27.6862 1.0977 27.8789 1.23572C28.0716 1.37113 28.2357 1.5391 28.3711 1.73962C28.5091 1.93754 28.6159 2.16931 28.6914 2.43494C28.7669 2.70056 28.8047 3.00395 28.8047 3.34509ZM27.3438 3.34509C27.3438 3.08728 27.3099 2.86332 27.2422 2.67322C27.1771 2.48311 27.0703 2.32686 26.9219 2.20447C26.776 2.07947 26.5846 1.98702 26.3477 1.92712C26.1107 1.86462 25.8216 1.83337 25.4805 1.83337H23.6797V4.86462H25.4805C25.8216 4.86462 26.1107 4.83468 26.3477 4.77478C26.5846 4.71228 26.776 4.61853 26.9219 4.49353C27.0703 4.36593 27.1771 4.20707 27.2422 4.01697C27.3099 3.82686 27.3438 3.60291 27.3438 3.34509ZM34.4414 5.01697H31.4492L30.9453 6.03259H29.3281L32.1367 0.665405H33.7539L36.5625 6.03259H34.9453L34.4414 5.01697ZM31.9688 3.97009H33.9297L32.9531 1.99353L31.9688 3.97009ZM37.043 3.99353V2.71228H40.2461V3.99353H37.043ZM48.4688 6.03259V2.26306L46.4766 6.03259H45.0859L43.0938 2.26306V6.03259H41.6445V0.665405H43.6133L45.7812 4.72791L47.9492 0.665405H49.9102V6.03259H48.4688ZM51.5898 6.03259V0.665405H57.0234V1.80994H53.0781V2.69666H56.8203V3.84119H53.0781V4.88806H57.0781V6.03259H51.5898ZM65.0547 3.34509C65.0547 3.68884 65.0169 3.99483 64.9414 4.26306C64.8659 4.52869 64.7591 4.76046 64.6211 4.95837C64.4857 5.15629 64.3216 5.32426 64.1289 5.46228C63.9388 5.6003 63.7266 5.71098 63.4922 5.79431C63.2578 5.87764 63.0052 5.93884 62.7344 5.97791C62.4635 6.01436 62.181 6.03259 61.8867 6.03259H58.4805V0.665405H61.8789C62.1732 0.665405 62.4557 0.684937 62.7266 0.723999C62.9974 0.760457 63.25 0.820353 63.4844 0.903687C63.7214 0.98702 63.9362 1.0977 64.1289 1.23572C64.3216 1.37113 64.4857 1.5391 64.6211 1.73962C64.7591 1.93754 64.8659 2.16931 64.9414 2.43494C65.0169 2.70056 65.0547 3.00395 65.0547 3.34509ZM63.5938 3.34509C63.5938 3.08728 63.5599 2.86332 63.4922 2.67322C63.4271 2.48311 63.3203 2.32686 63.1719 2.20447C63.026 2.07947 62.8346 1.98702 62.5977 1.92712C62.3607 1.86462 62.0716 1.83337 61.7305 1.83337H59.9297V4.86462H61.7305C62.0716 4.86462 62.3607 4.83468 62.5977 4.77478C62.8346 4.71228 63.026 4.61853 63.1719 4.49353C63.3203 4.36593 63.4271 4.20707 63.4922 4.01697C63.5599 3.82686 63.5938 3.60291 63.5938 3.34509ZM66.3789 6.03259V0.665405H67.8281V6.03259H66.3789ZM73.8242 5.01697H70.832L70.3281 6.03259H68.7109L71.5195 0.665405H73.1367L75.9453 6.03259H74.3281L73.8242 5.01697ZM71.3516 3.97009H73.3125L72.3359 1.99353L71.3516 3.97009Z" fill="white" fill-opacity="0.5"/>
</svg>
