<svg width="375" height="114" viewBox="0 0 375 114" fill="none" xmlns="http://www.w3.org/2000/svg">
<path d="M106.298 93.7451C140.429 84.7836 179.644 82.7049 215.435 86.5739C251.227 90.443 283.542 100.251 303.996 115.046C324.45 129.841 329.246 146.874 320.368 162.473C311.49 178.07 288.946 192.207 254.816 201.169C220.685 210.13 181.47 212.209 145.679 208.34C109.887 204.471 77.5719 194.663 57.1176 179.868C36.6633 165.073 31.8679 148.04 40.7461 132.441C49.6241 116.844 72.1677 102.707 106.298 93.7451Z" stroke="url(#paint0_linear_878_5654)"/>
<path d="M40.1535 58.8744C44.7764 57.4465 49.5454 56.0789 54.4584 54.7753L54.8651 55.0679C55.1908 54.9815 55.5171 54.8954 55.8441 54.8096C56.171 54.7237 56.4982 54.6382 56.8257 54.5531L56.4222 54.2597C61.3627 52.976 66.366 51.7778 71.4231 50.664L71.8017 50.9634C72.4802 50.814 73.1596 50.6661 73.84 50.5197L73.4647 50.2196C78.6246 49.1094 83.8389 48.0865 89.0981 47.1499L89.4469 47.4552C90.1573 47.3287 90.8684 47.2038 91.5804 47.0804L91.2352 46.7744C96.6149 45.8423 102.04 44.9998 107.5 44.2459L107.817 44.5563C108.549 44.4553 109.281 44.3559 110.014 44.2581L109.7 43.9472C115.284 43.2019 120.903 42.5487 126.546 41.9865L126.829 42.3009C127.589 42.2253 128.349 42.1513 129.109 42.0789L128.83 41.7641C134.594 41.2156 140.381 40.7617 146.181 40.4011L146.428 40.7184C147.213 40.6695 147.999 40.6224 148.785 40.577L148.543 40.2594C154.487 39.916 160.442 39.6702 166.396 39.5208L166.604 39.8399C167.402 39.8198 168.199 39.8016 168.997 39.785L168.795 39.4659C174.899 39.3392 181 39.3137 187.085 39.3879L187.25 39.7072C188.068 39.7171 188.886 39.7289 189.703 39.7425L189.543 39.4233C195.777 39.5268 201.993 39.735 208.175 40.0461L208.294 40.3639C209.129 40.4059 209.963 40.4498 210.796 40.4956L210.682 40.178C217.022 40.5262 223.325 40.9828 229.576 41.5463L229.646 41.8606C230.492 41.9369 231.337 42.0151 232.181 42.0953L232.118 41.7815C238.534 42.3909 244.891 43.1131 251.174 43.9463L251.189 44.2545C252.041 44.3675 252.892 44.4825 253.741 44.5996L253.733 44.2923C260.183 45.1814 266.55 46.1879 272.818 47.3098L272.773 47.6086C273.623 47.7608 274.471 47.9151 275.317 48.0715L275.37 47.774C281.797 48.9619 288.115 50.2718 294.304 51.7018L294.192 51.9871C295.03 52.1807 295.866 52.3765 296.699 52.5745L296.818 52.2911C303.146 53.7949 309.333 55.4253 315.36 57.1799L315.177 57.4465C315.99 57.6832 316.799 57.922 317.606 58.1632L317.798 57.8991C323.924 59.7301 329.877 61.691 335.634 63.7791L335.375 64.0209C336.147 64.301 336.916 64.5835 337.681 64.8682L337.95 64.6297C343.747 66.7867 349.338 69.0749 354.7 71.4915L354.362 71.7018C355.077 72.024 355.788 72.3486 356.495 72.6754L356.841 72.4693C362.167 74.9327 367.256 77.5254 372.084 80.2448L371.672 80.4171C372.312 80.7778 372.948 81.1407 373.579 81.5059L374 81.3384C378.714 84.0658 383.168 86.9173 387.338 89.89L386.858 90.0196C387.002 90.1223 387.146 90.225 387.289 90.3279C387.42 90.422 387.55 90.5162 387.681 90.6105C387.954 90.8079 388.225 91.0056 388.495 91.2036L388.982 91.0792C393.064 94.0751 396.767 97.1238 400.097 100.215L399.561 100.298C400.006 100.712 400.446 101.127 400.878 101.542L401.42 101.464C404.681 104.595 407.562 107.767 410.07 110.97L409.49 111.007C409.823 111.432 410.149 111.858 410.469 112.284L411.053 112.252C413.45 115.447 415.479 118.671 417.145 121.913L416.536 121.905C416.756 122.332 416.97 122.761 417.177 123.189L417.789 123.202C419.334 126.396 420.53 129.606 421.382 132.822L420.756 132.773C420.868 133.196 420.975 133.62 421.075 134.043L421.701 134.097C422.444 137.239 422.86 140.385 422.954 143.526L422.323 143.44C422.335 143.853 422.342 144.266 422.343 144.68L422.974 144.77C422.983 147.823 422.688 150.869 422.094 153.9L421.465 153.782C421.387 154.181 421.304 154.58 421.215 154.978L421.843 155.101C421.19 158.04 420.255 160.963 419.045 163.864L418.425 163.717C418.266 164.099 418.102 164.48 417.933 164.862L418.551 165.011C417.305 167.821 415.799 170.608 414.037 173.365L413.43 173.194C413.198 173.557 412.962 173.919 412.721 174.28L413.326 174.454C411.548 177.126 409.529 179.768 407.272 182.373L406.681 182.181C406.384 182.523 406.084 182.865 405.779 183.206L406.368 183.401C404.11 185.928 401.627 188.42 398.924 190.87L398.351 190.659C397.997 190.98 397.639 191.301 397.277 191.621L397.847 191.834C395.154 194.213 392.25 196.552 389.141 198.844L388.588 198.617C388.182 198.916 387.772 199.215 387.358 199.513L387.908 199.742C384.823 201.967 381.541 204.146 378.067 206.276L377.536 206.034C377.076 206.316 376.613 206.596 376.147 206.876L376.676 207.119C373.233 209.185 369.608 211.203 365.802 213.167L365.293 212.913C364.791 213.172 364.286 213.43 363.777 213.687L364.283 213.943C360.505 215.855 356.554 217.714 352.433 219.517L351.948 219.251C351.407 219.488 350.864 219.724 350.317 219.958L350.798 220.225C346.717 221.977 342.473 223.673 338.068 225.31L337.608 225.034C337.025 225.251 336.439 225.467 335.851 225.681L336.307 225.958C331.949 227.547 327.437 229.078 322.774 230.547L322.34 230.262C321.725 230.456 321.108 230.648 320.488 230.84L320.918 231.126C316.295 232.553 311.526 233.921 306.613 235.225L306.206 234.932C305.881 235.018 305.554 235.105 305.227 235.19C304.9 235.276 304.573 235.362 304.246 235.447L304.649 235.74C299.709 237.024 294.705 238.222 289.648 239.336L289.27 239.037C288.591 239.186 287.912 239.334 287.231 239.48L287.607 239.78C282.447 240.891 277.233 241.914 271.973 242.85L271.625 242.545C270.914 242.671 270.203 242.796 269.491 242.92L269.836 243.226C264.457 244.158 259.032 245 253.571 245.754L253.254 245.444C252.523 245.545 251.791 245.644 251.058 245.742L251.371 246.053C245.787 246.798 240.168 247.451 234.525 248.013L234.242 247.699C233.483 247.775 232.723 247.849 231.962 247.921L232.241 248.236C226.478 248.784 220.69 249.238 214.89 249.599L214.643 249.282C213.858 249.33 213.072 249.378 212.286 249.423L212.529 249.741C206.585 250.084 200.63 250.33 194.675 250.479L194.468 250.16C193.67 250.18 192.872 250.198 192.074 250.215L192.277 250.534C186.173 250.661 180.072 250.686 173.986 250.612L173.821 250.293C173.003 250.283 172.185 250.271 171.368 250.258L171.528 250.577C165.294 250.473 159.079 250.265 152.897 249.954L152.777 249.636C151.943 249.594 151.109 249.55 150.276 249.504L150.39 249.822C144.049 249.474 137.746 249.017 131.496 248.454L131.426 248.139C130.58 248.063 129.734 247.985 128.89 247.905L128.953 248.218C122.538 247.609 116.18 246.887 109.897 246.054L109.883 245.746C109.03 245.633 108.18 245.518 107.33 245.4L107.338 245.708C100.889 244.819 94.5211 243.812 88.2536 242.69L88.299 242.391C87.4489 242.239 86.6007 242.085 85.7544 241.929L85.7015 242.226C79.2745 241.038 72.9565 239.728 66.7677 238.298L66.8791 238.013C66.0413 237.819 65.2058 237.624 64.3729 237.426L64.2533 237.709C57.9259 236.205 51.7381 234.575 45.7116 232.82L45.8947 232.553C45.082 232.317 44.2722 232.078 43.4655 231.837L43.2736 232.101C37.1479 230.27 31.1946 228.309 25.4372 226.221L25.6964 225.979C24.9241 225.699 24.1553 225.417 23.3902 225.132L23.1218 225.37C17.3246 223.213 11.733 220.925 6.37196 218.509L6.70905 218.298C5.99414 217.976 5.28335 217.651 4.57676 217.325L4.23057 217.531C-1.09505 215.067 -6.18454 212.475 -11.0128 209.755L-10.6004 209.583C-11.2407 209.222 -11.8765 208.859 -12.5076 208.494L-12.9285 208.662C-17.6423 205.934 -22.0965 203.083 -26.2665 200.11L-25.7865 199.98C-26.062 199.784 -26.3363 199.587 -26.6093 199.39C-26.8823 199.192 -27.1537 198.994 -27.4233 198.796L-27.9105 198.921C-31.9924 195.925 -35.6954 192.876 -39.0255 189.785L-38.4891 189.702C-38.9349 189.288 -39.374 188.873 -39.8064 188.458L-40.3487 188.536C-43.6091 185.405 -46.4903 182.233 -48.9987 179.03L-48.4187 178.993C-48.7516 178.568 -49.0778 178.142 -49.3974 177.716L-49.9815 177.748C-52.3786 174.553 -54.4073 171.329 -56.0739 168.087L-55.4647 168.096C-55.6847 167.668 -55.8983 167.239 -56.1056 166.811L-56.7173 166.798C-58.2628 163.604 -59.4584 160.394 -60.3101 157.178L-59.6848 157.227C-59.7969 156.804 -59.9031 156.38 -60.0033 155.957L-60.6298 155.903C-61.3728 152.761 -61.7885 149.615 -61.8822 146.474L-61.2514 146.561C-61.2638 146.147 -61.2705 145.734 -61.2717 145.32L-61.9026 145.23C-61.9112 142.177 -61.616 139.131 -61.0222 136.1L-60.394 136.218C-60.3158 135.819 -60.2324 135.42 -60.1438 135.022L-60.7712 134.899C-60.1181 131.96 -59.184 129.037 -57.9736 126.136L-57.3539 126.283C-57.1945 125.901 -57.0303 125.52 -56.8613 125.138L-57.4796 124.989C-56.2335 122.179 -54.7273 119.392 -52.9654 116.635L-52.3585 116.806C-52.1266 116.443 -51.8903 116.081 -51.6496 115.72L-52.2547 115.546C-50.4765 112.874 -48.4571 110.232 -46.2004 107.627L-45.6094 107.819C-45.3129 107.477 -45.0122 107.135 -44.7075 106.794L-45.2964 106.599C-43.0384 104.072 -40.5559 101.58 -37.8525 99.13L-37.2798 99.3409C-36.9254 99.0197 -36.5672 98.6991 -36.2051 98.3793L-36.7755 98.1664C-34.0821 95.7873 -31.179 93.4485 -28.0694 91.1559L-27.5168 91.3832C-27.1103 91.0835 -26.7003 90.7847 -26.2868 90.4866L-26.837 90.2576C-23.7513 88.0334 -20.4697 85.8538 -16.9951 83.7243L-16.464 83.966C-16.0046 83.6845 -15.5419 83.4038 -15.0757 83.124L-15.6042 82.8807C-12.162 80.8146 -8.53637 78.797 -4.73007 76.8327L-4.22177 77.0873C-3.71968 76.8281 -3.21441 76.57 -2.70599 76.3127L-3.21151 76.0567C0.566267 74.1452 4.51727 72.2857 8.63881 70.4827L9.12314 70.7487C9.664 70.5121 10.2078 70.2764 10.7546 70.0418L10.2731 69.7746C14.3542 68.0232 18.5987 66.3268 23.0038 64.6898L23.4632 64.9657C24.0462 64.7491 24.632 64.5335 25.2206 64.3189L24.7643 64.0418C29.1222 62.4534 33.6341 60.9224 38.2977 59.4533L38.7312 59.7381C39.3461 59.5444 39.9637 59.3518 40.5839 59.1602L40.1535 58.8744Z" stroke="url(#paint1_linear_878_5654)" stroke-dasharray="2 15"/>
<path d="M89.4232 84.7438C91.0157 84.2859 92.632 83.8382 94.2718 83.4009L94.6794 83.6933C95.0065 83.6061 95.3347 83.5193 95.6637 83.4329C95.9928 83.3465 96.3223 83.2606 96.6522 83.1753L96.2494 82.8817C97.9028 82.4542 99.5665 82.0408 101.24 81.6412L101.63 81.9378C102.3 81.7779 102.972 81.6201 103.645 81.4646L103.259 81.1668C104.96 80.7737 106.67 80.3948 108.389 80.0301L108.762 80.3307C109.449 80.1849 110.137 80.0414 110.827 79.9002L110.459 79.5985C112.205 79.2408 113.96 78.8976 115.723 78.5686L116.078 78.8728C116.782 78.7416 117.486 78.6126 118.192 78.4859L117.842 78.1808C119.633 77.8594 121.431 77.5527 123.236 77.2606L123.573 77.5681C124.293 77.4516 125.014 77.3373 125.737 77.2254L125.406 76.9171C127.238 76.6333 129.077 76.3644 130.922 76.1102L131.238 76.4206C131.975 76.3192 132.712 76.2201 133.45 76.1234L133.139 75.8123C135.011 75.5669 136.889 75.3368 138.772 75.1216L139.068 75.4346C139.82 75.3487 140.572 75.2652 141.325 75.1841L141.034 74.8705C142.945 74.6648 144.86 74.4745 146.779 74.2994L147.054 74.6145C147.82 74.5447 148.587 74.4772 149.354 74.4122L149.085 74.0966C151.032 73.9316 152.982 73.7822 154.936 73.6484L155.189 73.9653C155.968 73.9119 156.748 73.861 157.529 73.8125L157.282 73.4952C159.264 73.3722 161.248 73.2651 163.232 73.1739L163.462 73.4921C164.256 73.4556 165.05 73.4217 165.844 73.3903L165.621 73.0718C167.633 72.9922 169.647 72.9288 171.66 72.8815L171.866 73.2005C172.673 73.1816 173.48 73.1652 174.287 73.1515L174.088 72.8323C176.129 72.7975 178.17 72.7792 180.208 72.7773L180.389 73.0967C181.209 73.0959 182.028 73.0979 182.848 73.1024L182.674 72.7831C184.741 72.7946 186.804 72.823 188.865 72.868L189.019 73.1871C189.851 73.2053 190.682 73.2263 191.513 73.2499L191.367 72.931C193.457 72.9906 195.543 73.0673 197.624 73.1611L197.75 73.4792C198.591 73.5171 199.431 73.5578 200.271 73.6013L200.153 73.2836C202.265 73.3931 204.371 73.5201 206.471 73.6647L206.567 73.9812C207.414 74.0394 208.259 74.1006 209.103 74.1646L209.016 73.8487C211.146 74.0102 213.269 74.1897 215.383 74.3871L215.448 74.7011C216.298 74.7805 217.147 74.8628 217.994 74.948L217.937 74.6349C220.082 74.8506 222.216 75.0848 224.339 75.3374L224.372 75.6478C225.223 75.7491 226.072 75.8533 226.92 75.9605L226.897 75.6512C229.05 75.9234 231.19 76.2146 233.317 76.5246L233.314 76.8305C234.165 76.9544 235.013 77.0814 235.858 77.2113L235.871 76.907C238.025 77.2381 240.165 77.5886 242.288 77.9584L242.248 78.2583C243.102 78.407 243.953 78.5588 244.801 78.7137L244.851 78.4157C246.995 78.8073 249.122 79.2188 251.229 79.65L251.151 79.9426C252.001 80.1165 252.848 80.2936 253.691 80.474L253.781 80.1838C255.911 80.639 258.02 81.1146 260.107 81.6103L259.987 81.8937C260.825 82.0927 261.66 82.295 262.49 82.5005L262.622 82.22C264.726 82.7407 266.806 83.2822 268.861 83.8442L268.699 84.1166C269.52 84.3412 270.337 84.5692 271.15 84.8004L271.326 84.5315C273.392 85.1191 275.431 85.7278 277.442 86.3575L277.234 86.6167C278.04 86.8691 278.841 87.125 279.637 87.3841L279.858 87.1291C281.87 87.7837 283.851 88.4597 285.8 89.1569L285.546 89.4005C286.326 89.6796 287.101 89.9621 287.871 90.2481L288.139 90.0094C290.081 90.7309 291.99 91.474 293.863 92.2384L293.562 92.4639C294.308 92.7687 295.05 93.0769 295.785 93.3885L296.1 93.1686C297.956 93.9552 299.775 94.7633 301.555 95.5926L301.207 95.7976C301.915 96.1277 302.618 96.4611 303.313 96.798L303.675 96.5994C305.427 97.4471 307.138 98.3161 308.807 99.2061L308.413 99.3882C309.075 99.7414 309.731 100.098 310.38 100.458L310.788 100.283C312.417 101.186 314.003 102.11 315.545 103.055L315.107 103.212C315.719 103.587 316.323 103.965 316.92 104.346L317.37 104.196C318.862 105.148 320.31 106.12 321.711 107.112L321.233 107.243C321.511 107.44 321.787 107.638 322.062 107.836C322.336 108.035 322.608 108.233 322.878 108.433L323.367 108.31C324.724 109.313 326.02 110.325 327.254 111.345L326.74 111.448C327.234 111.856 327.718 112.266 328.192 112.676L328.716 112.581C329.911 113.617 331.045 114.66 332.116 115.71L331.57 115.785C331.997 116.203 332.414 116.622 332.821 117.043L333.375 116.976C334.4 118.035 335.363 119.1 336.264 120.171L335.692 120.218C336.05 120.643 336.399 121.07 336.737 121.497L337.316 121.459C338.167 122.532 338.956 123.611 339.684 124.693L339.091 124.712C339.379 125.141 339.658 125.57 339.927 126.001L340.526 125.99C341.201 127.069 341.816 128.151 342.372 129.237L341.763 129.228C341.983 129.659 342.194 130.089 342.396 130.52L343.009 130.536C343.512 131.613 343.958 132.692 344.346 133.773L343.725 133.739C343.879 134.167 344.023 134.595 344.159 135.024L344.781 135.065C345.119 136.134 345.401 137.204 345.628 138.275L345 138.217C345.089 138.638 345.17 139.059 345.242 139.481L345.87 139.545C346.05 140.6 346.176 141.654 346.249 142.708L345.619 142.628C345.647 143.044 345.668 143.46 345.68 143.876L346.311 143.962C346.341 144.998 346.32 146.033 346.248 147.066L345.618 146.965C345.589 147.374 345.553 147.783 345.508 148.192L346.138 148.299C346.028 149.312 345.869 150.324 345.662 151.333L345.034 151.213C344.952 151.612 344.862 152.011 344.765 152.409L345.391 152.534C345.149 153.525 344.861 154.513 344.526 155.498L343.902 155.36C343.771 155.747 343.632 156.133 343.486 156.518L344.108 156.661C343.743 157.625 343.333 158.585 342.879 159.542L342.263 159.389C342.084 159.765 341.898 160.141 341.706 160.517L342.321 160.674C341.841 161.61 341.318 162.542 340.754 163.469L340.145 163.301C339.922 163.667 339.692 164.033 339.456 164.397L340.062 164.569C339.475 165.476 338.847 166.377 338.179 167.274L337.58 167.092C337.315 167.447 337.044 167.802 336.766 168.155L337.363 168.34C336.675 169.217 335.949 170.087 335.184 170.952L334.594 170.759C334.29 171.102 333.98 171.445 333.664 171.787L334.251 171.984C333.468 172.829 332.649 173.669 331.793 174.502L331.214 174.297C330.874 174.628 330.528 174.958 330.176 175.287L330.751 175.496C329.88 176.311 328.973 177.119 328.031 177.92L327.464 177.704C327.09 178.022 326.711 178.339 326.326 178.654L326.89 178.873C325.933 179.658 324.943 180.435 323.918 181.205L323.364 180.98C322.958 181.284 322.548 181.587 322.133 181.89L322.684 182.118C321.647 182.871 320.577 183.618 319.475 184.356L318.933 184.121C318.498 184.412 318.059 184.702 317.614 184.991L318.152 185.228C317.039 185.95 315.895 186.665 314.719 187.371L314.191 187.127C313.728 187.405 313.26 187.682 312.787 187.958L313.312 188.203C312.128 188.893 310.913 189.575 309.668 190.248L309.153 189.997C308.663 190.262 308.168 190.526 307.668 190.788L308.179 191.041C306.927 191.699 305.646 192.348 304.336 192.988L303.835 192.729C303.319 192.981 302.798 193.232 302.273 193.482L302.769 193.742C301.453 194.367 300.108 194.983 298.736 195.59L298.25 195.324C297.709 195.563 297.163 195.801 296.613 196.038L297.095 196.305C295.717 196.897 294.312 197.479 292.88 198.053L292.409 197.781C291.845 198.007 291.276 198.232 290.703 198.455L291.169 198.728C289.733 199.287 288.271 199.836 286.782 200.376L286.326 200.099C285.739 200.311 285.149 200.523 284.554 200.732L285.005 201.011C283.513 201.537 281.997 202.053 280.455 202.558L280.015 202.275C279.406 202.475 278.794 202.673 278.177 202.87L278.612 203.154C277.069 203.646 275.501 204.128 273.909 204.599L273.485 204.311C272.855 204.498 272.221 204.683 271.584 204.866L272.003 205.156C270.41 205.613 268.794 206.061 267.154 206.498L266.747 206.206C266.419 206.293 266.091 206.38 265.762 206.466C265.433 206.553 265.104 206.639 264.774 206.724L265.176 207.018C263.523 207.445 261.859 207.859 260.186 208.258L259.796 207.961C259.126 208.121 258.454 208.279 257.781 208.435L258.167 208.733C256.466 209.126 254.756 209.504 253.037 209.869L252.664 209.569C251.977 209.714 251.289 209.858 250.599 209.999L250.967 210.301C249.221 210.658 247.466 211.002 245.703 211.331L245.348 211.027C244.644 211.158 243.94 211.287 243.234 211.413L243.584 211.719C241.793 212.04 239.995 212.347 238.19 212.639L237.853 212.331C237.133 212.448 236.412 212.562 235.689 212.674L236.02 212.982C234.188 213.266 232.349 213.535 230.504 213.789L230.188 213.479C229.451 213.58 228.714 213.679 227.976 213.776L228.287 214.087C226.415 214.332 224.537 214.563 222.654 214.778L222.358 214.465C221.606 214.551 220.854 214.634 220.101 214.715L220.391 215.029C218.481 215.235 216.566 215.425 214.647 215.6L214.372 215.285C213.606 215.355 212.839 215.422 212.072 215.487L212.341 215.803C210.394 215.968 208.443 216.117 206.49 216.251L206.237 215.934C205.458 215.987 204.677 216.038 203.897 216.087L204.144 216.404C202.162 216.527 200.178 216.634 198.194 216.725L197.964 216.407C197.17 216.444 196.376 216.478 195.582 216.509L195.805 216.828C193.793 216.907 191.779 216.971 189.766 217.018L189.56 216.699C188.753 216.718 187.946 216.734 187.139 216.748L187.338 217.067C185.297 217.102 183.256 217.12 181.218 217.122L181.037 216.803C180.217 216.803 179.398 216.801 178.578 216.797L178.751 217.116C176.685 217.105 174.622 217.076 172.561 217.031L172.407 216.712C171.575 216.694 170.744 216.673 169.913 216.649L170.059 216.968C167.969 216.909 165.883 216.832 163.802 216.738L163.676 216.42C162.835 216.382 161.994 216.341 161.155 216.298L161.273 216.616C159.161 216.506 157.054 216.379 154.955 216.235L154.859 215.918C154.012 215.86 153.167 215.799 152.322 215.735L152.41 216.051C150.28 215.889 148.157 215.71 146.043 215.512L145.978 215.198C145.128 215.119 144.279 215.037 143.432 214.951L143.488 215.264C141.344 215.049 139.21 214.814 137.087 214.562L137.054 214.252C136.203 214.15 135.354 214.046 134.506 213.939L134.529 214.248C132.376 213.976 130.236 213.685 128.109 213.375L128.112 213.069C127.261 212.945 126.413 212.818 125.567 212.688L125.555 212.992C123.401 212.661 121.261 212.311 119.138 211.941L119.177 211.641C118.324 211.492 117.473 211.341 116.625 211.186L116.575 211.484C114.431 211.092 112.304 210.68 110.197 210.249L110.275 209.957C109.425 209.783 108.578 209.606 107.735 209.425L107.645 209.716C105.515 209.26 103.406 208.785 101.319 208.289L101.438 208.006C100.601 207.807 99.7664 207.604 98.9359 207.399L98.8044 207.679C96.7001 207.159 94.6196 206.617 92.5644 206.055L92.7271 205.783C91.9058 205.558 91.0886 205.33 90.2756 205.099L90.1003 205.368C88.034 204.78 85.9948 204.171 83.9844 203.542L84.1921 203.283C83.3862 203.03 82.5849 202.774 81.7885 202.515L81.5676 202.77C79.556 202.116 77.5747 201.44 75.6257 200.742L75.88 200.499C75.0996 200.22 74.3245 199.937 73.5548 199.651L73.287 199.89C71.3445 199.168 69.4358 198.425 67.5628 197.661L67.8643 197.435C67.1174 197.131 66.3763 196.822 65.641 196.511L65.3259 196.731C63.4697 195.944 61.6506 195.136 59.8704 194.307L60.2192 194.102C59.5107 193.772 58.8084 193.438 58.1125 193.101L57.7505 193.3C55.9992 192.452 54.2879 191.583 52.6186 190.693L53.0133 190.511C52.3507 190.158 51.6948 189.801 51.0457 189.441L50.6383 189.616C49.0092 188.713 47.4226 187.789 45.8805 186.844L46.3187 186.687C45.7073 186.313 45.1029 185.935 44.5057 185.554L44.0556 185.703C42.5635 184.751 41.1159 183.779 39.7148 182.787L40.193 182.656C39.9149 182.459 39.6386 182.262 39.3642 182.063C39.0898 181.865 38.8178 181.666 38.5483 181.467L38.0594 181.59C36.7017 180.586 35.406 179.574 34.172 178.555L34.6861 178.451C34.1921 178.043 33.7081 177.633 33.234 177.223L32.7104 177.318C31.5146 176.283 30.3813 175.239 29.3101 174.19L29.8557 174.114C29.429 173.696 29.0121 173.277 28.6051 172.856L28.0513 172.923C27.0259 171.864 26.0628 170.799 25.1615 169.728L25.7336 169.681C25.3755 169.256 25.0271 168.829 24.6886 168.402L24.1099 168.441C23.2593 167.367 22.4701 166.289 21.7419 165.206L22.3352 165.187C22.0467 164.759 21.7679 164.329 21.4986 163.899L20.9002 163.91C20.2249 162.831 19.6095 161.748 19.0536 160.662L19.6629 160.671C19.4426 160.241 19.2317 159.81 19.0301 159.379L18.4171 159.363C17.9136 158.286 17.4682 157.207 17.0804 156.126L17.7009 156.16C17.5473 155.732 17.4028 155.304 17.2674 154.875L16.6445 154.834C16.3066 153.765 16.0247 152.695 15.7983 151.625L16.4257 151.683C16.3366 151.261 16.2562 150.84 16.1843 150.419L15.5557 150.354C15.376 149.3 15.2498 148.245 15.1769 147.191L15.8074 147.271C15.7786 146.855 15.7582 146.439 15.746 146.024L15.1152 145.937C15.0849 144.901 15.1059 143.867 15.1777 142.833L15.8082 142.934C15.8366 142.525 15.8731 142.116 15.9175 141.707L15.2875 141.601C15.3977 140.587 15.5567 139.576 15.7642 138.566L16.3922 138.686C16.4742 138.287 16.5639 137.889 16.6612 137.49L16.0344 137.365C16.2764 136.374 16.5652 135.386 16.9003 134.402L17.5235 134.539C17.6551 134.152 17.7939 133.766 17.9398 133.381L17.3183 133.239C17.6833 132.275 18.0928 131.314 18.5466 130.357L19.1633 130.511C19.342 130.134 19.5275 129.758 19.72 129.383L19.1054 129.225C19.5852 128.289 20.1076 127.357 20.6721 126.43L21.2809 126.598C21.5039 126.232 21.7336 125.867 21.9698 125.502L21.3635 125.33C21.9508 124.424 22.5786 123.522 23.2467 122.626L23.8464 122.807C24.1111 122.452 24.3821 122.098 24.6595 121.744L24.0626 121.559C24.7505 120.683 25.4771 119.812 26.2422 118.947L26.8318 119.141C27.1357 118.797 27.4458 118.454 27.7619 118.113L27.1754 117.915C27.9576 117.07 28.7769 116.23 29.6329 115.397L30.2115 115.603C30.5518 115.271 30.898 114.941 31.25 114.612L30.6746 114.404C31.5461 113.589 32.453 112.78 33.3952 111.979L33.9622 112.195C34.3358 111.877 34.715 111.56 35.0997 111.245L34.5362 111.026C35.4926 110.242 36.4832 109.464 37.5077 108.694L38.0624 108.92C38.4674 108.615 38.8778 108.312 39.2934 108.01L38.7423 107.781C39.7791 107.028 40.8487 106.282 41.9508 105.543L42.4927 105.778C42.9274 105.487 43.3673 105.197 43.8122 104.908L43.2741 104.671C44.3868 103.949 45.531 103.235 46.7067 102.529L47.2352 102.772C47.6982 102.494 48.1661 102.217 48.6389 101.942L48.1142 101.696C49.2984 101.006 50.513 100.325 51.7578 99.6514L52.2725 99.9026C52.7628 99.6374 53.2578 99.3737 53.7574 99.1112L53.2467 98.8579C54.4986 98.2005 55.7798 97.5516 57.0901 96.9116L57.5905 97.1701C58.1069 96.9178 58.6279 96.667 59.1533 96.4176L58.6569 96.1572C59.9732 95.5324 61.3178 94.9164 62.6904 94.3097L63.1763 94.575C63.7174 94.3358 64.2629 94.0981 64.8128 93.8618L64.3311 93.5947C65.7088 93.0027 67.1138 92.4199 68.5458 91.8467L69.0167 92.1182C69.5813 91.8922 70.1501 91.6677 70.7231 91.4447L70.2566 91.1714C71.6928 90.6124 73.1553 90.0629 74.6441 89.5232L75.0996 89.8006C75.6864 89.5879 76.2774 89.3767 76.8723 89.167L76.4212 88.888C77.9124 88.3625 79.4291 87.8467 80.9709 87.341L81.4108 87.6238C82.0196 87.4242 82.6324 87.226 83.249 87.0295L82.8138 86.7452C84.357 86.2535 85.9248 85.7716 87.5171 85.3001L87.9409 85.5879C88.5709 85.4013 89.2047 85.2163 89.8424 85.033L89.4232 84.7438Z" stroke="url(#paint2_linear_878_5654)" stroke-dasharray="2 5"/>
<defs>
<linearGradient id="paint0_linear_878_5654" x1="228.577" y1="169.663" x2="232.87" y2="206.425" gradientUnits="userSpaceOnUse">
<stop stop-color="#777796"/>
<stop offset="1" stop-color="#777796" stop-opacity="0.1"/>
</linearGradient>
<linearGradient id="paint1_linear_878_5654" x1="276.775" y1="221.981" x2="278.818" y2="241.138" gradientUnits="userSpaceOnUse">
<stop stop-color="#777796"/>
<stop offset="1" stop-color="#777796" stop-opacity="0"/>
</linearGradient>
<linearGradient id="paint2_linear_878_5654" x1="193.608" y1="73.3297" x2="209.44" y2="212.008" gradientUnits="userSpaceOnUse">
<stop stop-color="#777796"/>
<stop offset="1" stop-color="#777796" stop-opacity="0.1"/>
</linearGradient>
</defs>
</svg>
