<svg width="151" height="17" viewBox="0 0 151 17" fill="none" xmlns="http://www.w3.org/2000/svg">
<path d="M7.83503 17C6.31386 17 4.83849 16.8279 3.40894 16.4835C1.99771 16.1234 0.861395 15.6616 0 15.0981L1.51203 12.2335C2.33677 12.75 3.3173 13.1648 4.45361 13.4779C5.58994 13.791 6.72623 13.9475 7.86256 13.9475C9.12714 13.9475 10.0618 13.791 10.6666 13.4779C11.2715 13.1492 11.5739 12.7187 11.5739 12.1865C11.5739 11.7951 11.3906 11.4742 11.0241 11.2238C10.6758 10.9576 10.2177 10.7463 9.64947 10.5898C9.09966 10.4332 8.34822 10.2611 7.39519 10.0732C5.92897 9.77577 4.72852 9.47835 3.79382 9.18093C2.8591 8.8835 2.05269 8.40606 1.37457 7.7486C0.714779 7.09115 0.38488 6.21457 0.38488 5.11877C0.38488 4.16391 0.687286 3.30295 1.2921 2.53591C1.89691 1.75322 2.80412 1.1349 4.01374 0.680942C5.24167 0.226982 6.73542 0 8.49485 0C9.72281 0 10.9232 0.125227 12.0962 0.375688C13.2692 0.626149 14.2955 0.98619 15.1753 1.4558L13.8007 4.34393C12.0229 3.48297 10.2451 3.05249 8.46737 3.05249C7.22108 3.05249 6.29552 3.22468 5.69071 3.56907C5.10423 3.91345 4.811 4.36741 4.811 4.93093C4.811 5.4945 5.15005 5.91715 5.8282 6.19893C6.52464 6.46502 7.57849 6.73111 8.9897 6.99725C10.4559 7.29468 11.6564 7.5921 12.591 7.88952C13.5258 8.18695 14.323 8.65657 14.9828 9.29833C15.6609 9.94015 16 10.809 16 11.9047C16 12.8439 15.6885 13.7049 15.0653 14.4876C14.4605 15.2546 13.5441 15.8651 12.3162 16.3191C11.0882 16.7731 9.59451 17 7.83503 17Z" fill="white"/>
<path d="M27.486 0C29.2224 0 30.7254 0.236187 31.9951 0.708571C33.2834 1.18095 34.2729 1.85142 34.9638 2.72C35.6546 3.58857 36 4.61715 36 5.80569C36 6.97902 35.6546 8.0076 34.9638 8.8914C34.2729 9.75997 33.2834 10.4305 31.9951 10.9028C30.7254 11.36 29.2224 11.5886 27.486 11.5886H23.5371V16H19V0H27.486ZM27.2339 8.57143C28.5969 8.57143 29.6332 8.33524 30.3427 7.86287C31.0522 7.37522 31.4069 6.68954 31.4069 5.80569C31.4069 4.90667 31.0522 4.22095 30.3427 3.74857C29.6332 3.26095 28.5969 3.01714 27.2339 3.01714H23.5371V8.57143H27.2339Z" fill="white"/>
<path d="M51.498 12.5714H42.3898L40.6522 16H36L44.7439 0H49.228L58 16H53.2355L51.498 12.5714ZM50.0688 9.75997L46.958 3.63428L43.8471 9.75997H50.0688Z" fill="white"/>
<path d="M68.7798 17C66.7512 17 64.9118 16.64 63.2622 15.9199C61.6315 15.1842 60.3422 14.1745 59.3937 12.8909C58.4647 11.5916 58 10.128 58 8.50001C58 6.87203 58.4647 5.41619 59.3937 4.1326C60.3422 2.83334 61.6315 1.82367 63.2622 1.10359C64.9118 0.367863 66.7605 0 68.8086 0C70.5339 0 72.089 0.250463 73.4729 0.75138C74.8763 1.2523 76.052 1.97238 77 2.9116L74.042 5.16574C72.6956 3.88214 71.0269 3.24033 69.0358 3.24033C67.8036 3.24033 66.7039 3.46731 65.7364 3.92127C64.7695 4.35958 64.0112 4.9779 63.4611 5.77623C62.9301 6.5746 62.6648 7.48251 62.6648 8.50001C62.6648 9.5175 62.9301 10.4254 63.4611 11.2238C64.0112 12.0221 64.7695 12.6483 65.7364 13.1022C66.7039 13.5406 67.8036 13.7597 69.0358 13.7597C71.0269 13.7597 72.6956 13.11 74.042 11.8108L77 14.0649C76.052 15.0198 74.8763 15.7477 73.4729 16.2486C72.0699 16.7495 70.5056 17 68.7798 17Z" fill="white"/>
<path d="M95 13.0286V16H80V0H94.6403V2.97142H84.4554V6.44569H93.4503V9.32571H84.4554V13.0286H95Z" fill="white"/>
<path d="M99 0H100.46V14.9486H112V16H99V0Z" fill="white"/>
<path d="M127.036 11.4971H115.937L113.504 16H112L120.803 0H122.197L131 16H129.496L127.036 11.4971ZM126.516 10.5143L121.486 1.28L116.484 10.5143H126.516Z" fill="white"/>
<path d="M146.677 7.74858C148.081 7.96188 149.147 8.41141 149.877 9.09714C150.626 9.78286 151 10.6743 151 11.7714C151 13.1276 150.392 14.1714 149.176 14.9029C147.959 15.6343 146.153 16 143.758 16H135V0H143.196C145.33 0 146.986 0.358092 148.165 1.07428C149.363 1.77523 149.961 2.78095 149.961 4.09142C149.961 5.00573 149.662 5.77524 149.063 6.40002C148.483 7.02474 147.687 7.47428 146.677 7.74858ZM136.431 1.00571V7.38283H143.14C144.862 7.38283 146.181 7.11619 147.098 6.58287C148.034 6.03427 148.502 5.23426 148.502 4.18285C148.502 3.14666 148.034 2.3619 147.098 1.82857C146.181 1.28 144.862 1.00571 143.14 1.00571H136.431ZM143.758 14.9943C145.667 14.9943 147.108 14.7276 148.081 14.1943C149.073 13.6457 149.568 12.8076 149.568 11.68C149.568 10.5524 149.073 9.72191 148.081 9.18859C147.108 8.65521 145.667 8.38858 143.758 8.38858H136.431V14.9943H143.758Z" fill="white"/>
</svg>
