<svg width="17" height="15" viewBox="0 0 17 15" fill="none" xmlns="http://www.w3.org/2000/svg">
<path d="M15.8741 0.3536C15.6615 0.17678 15.405 0.0608943 15.1319 0.0182763C14.8587 -0.0243417 14.5791 0.00790251 14.3228 0.111578L0.944814 5.51276C0.658719 5.63047 0.415186 5.83241 0.246539 6.09176C0.0778922 6.35112 -0.0078924 6.65563 0.000571046 6.96488C0.0090345 7.27413 0.111346 7.57349 0.293925 7.82323C0.476505 8.07297 0.730718 8.26128 1.02282 8.36317L3.72889 9.30431L5.23719 14.2922C5.25769 14.3588 5.28743 14.4222 5.32556 14.4806C5.33134 14.4895 5.3395 14.4962 5.34565 14.5049C5.3897 14.5663 5.44293 14.6207 5.50349 14.666C5.52071 14.6791 5.5372 14.6914 5.55561 14.703C5.62648 14.7501 5.70496 14.7844 5.78757 14.8046L5.79641 14.8054L5.80141 14.8075C5.85108 14.8176 5.90163 14.8228 5.95232 14.8228C5.95719 14.8228 5.96152 14.8205 5.96635 14.8204C6.04284 14.8191 6.11866 14.8059 6.19112 14.7814C6.20797 14.7756 6.22242 14.766 6.23877 14.7591C6.2928 14.7367 6.34399 14.708 6.39128 14.6736C6.42914 14.6417 6.46702 14.6098 6.50491 14.5779L8.52207 12.3508L11.5307 14.6814C11.7955 14.8876 12.1216 14.9997 12.4572 15C12.809 14.9995 13.1499 14.8782 13.4227 14.6563C13.6956 14.4343 13.8839 14.1254 13.9561 13.7811L16.3917 1.82473C16.4469 1.55563 16.4279 1.27659 16.3367 1.01746C16.2455 0.75833 16.0856 0.52886 15.8741 0.3536ZM6.24832 9.54197C6.14481 9.64506 6.07406 9.77643 6.04493 9.91959L5.81388 11.0423L5.22858 9.1066L8.26329 7.5263L6.24832 9.54197ZM12.4456 13.5012L8.89023 10.747C8.74148 10.632 8.55489 10.5774 8.36764 10.5939C8.18038 10.6103 8.00621 10.6968 7.87983 10.8359L7.2338 11.549L7.46211 10.4393L12.7496 5.15188C12.8758 5.02585 12.9527 4.85878 12.9663 4.68093C12.98 4.50309 12.9295 4.32624 12.824 4.18242C12.7185 4.03859 12.565 3.9373 12.3913 3.8969C12.2175 3.85649 12.0351 3.87964 11.877 3.96215L4.28857 7.9131L1.50834 6.89569L14.9293 1.52655L12.4456 13.5012Z" />
</svg>
