<svg width="19" height="15" viewBox="0 0 19 15" fill="none" xmlns="http://www.w3.org/2000/svg">
<path d="M12.0844 6.075L9.27188 4.44375C9.02201 4.29612 8.7371 4.21825 8.44688 4.21825C8.15665 4.21825 7.87175 4.29612 7.62188 4.44375C7.37009 4.58569 7.16136 4.79305 7.01778 5.04391C6.8742 5.29476 6.80111 5.57976 6.80625 5.86875V9.13125C6.80111 9.42024 6.8742 9.70524 7.01778 9.95609C7.16136 10.2069 7.37009 10.4143 7.62188 10.5563C7.87175 10.7039 8.15665 10.7818 8.44688 10.7818C8.7371 10.7818 9.02201 10.7039 9.27188 10.5563L12.0844 8.925C12.3248 8.77742 12.5234 8.57066 12.6612 8.32447C12.7989 8.07827 12.8713 7.80087 12.8713 7.51875C12.8713 7.23663 12.7989 6.95923 12.6612 6.71303C12.5234 6.46684 12.3248 6.26008 12.0844 6.1125V6.075ZM8.6625 8.7375V6.2625L10.8 7.5L8.6625 8.7375ZM15.9375 0H2.8125C2.06658 0 1.35121 0.296316 0.823762 0.823762C0.296316 1.35121 0 2.06658 0 2.8125V12.1875C0 12.9334 0.296316 13.6488 0.823762 14.1762C1.35121 14.7037 2.06658 15 2.8125 15H15.9375C16.6834 15 17.3988 14.7037 17.9262 14.1762C18.4537 13.6488 18.75 12.9334 18.75 12.1875V2.8125C18.75 2.06658 18.4537 1.35121 17.9262 0.823762C17.3988 0.296316 16.6834 0 15.9375 0ZM16.875 12.1875C16.875 12.4361 16.7762 12.6746 16.6004 12.8504C16.4246 13.0262 16.1861 13.125 15.9375 13.125H2.8125C2.56386 13.125 2.3254 13.0262 2.14959 12.8504C1.97377 12.6746 1.875 12.4361 1.875 12.1875V2.8125C1.875 2.56386 1.97377 2.3254 2.14959 2.14959C2.3254 1.97377 2.56386 1.875 2.8125 1.875H15.9375C16.1861 1.875 16.4246 1.97377 16.6004 2.14959C16.7762 2.3254 16.875 2.56386 16.875 2.8125V12.1875Z" fill="#818196"/>
</svg>
